<svg width="27" height="17" fill="none" xmlns="http://www.w3.org/2000/svg"><path d="M20.035.996c.635.766 1.25 1.576 1.909 2.286.806.868 1.52 1.891 2.26 2.88.413.555 1.03.789 1.578 1.034.285.126.396.472.58.71.084.108.093.596.013.726-.342.55-.543 1.305-1.028 1.654-1.61 1.156-3.04 2.766-4.48 4.347-.62.673-1.313 1.163-2.046 1.443-.098.039-.215-.034-.324-.056a4.62 4.62 0 0 1 .16-.516c.675-1.511 1.732-2.312 2.634-3.396.71-.852 1.471-1.597 2.203-2.404.074-.082.099-.273.146-.413a.587.587 0 0 0-.234-.106c-.231.013-.46.065-.691.088-2.474.24-4.947.564-7.424.681-1.145.055-2.285.25-3.434.236-1.121-.013-2.244.252-3.365.236-1.793-.024-3.57.31-5.357.43-.203.014-.367.222-.516.279-.383.133-.781.12-1.16-.04-.356-.151-.674-.535-.999-.842a.379.379 0 0 1-.106-.16.616.616 0 0 1 .007-.443.355.355 0 0 1 .112-.15 1.95 1.95 0 0 1 .41-.234c2.209-1.11 4.524-1.613 6.844-1.488 1.263.072 2.532-.061 3.798-.111 1.44-.057 2.879-.183 4.318-.174 2.395.017 4.79.112 7.186.19.4.013.8.108 1.2.16a.658.658 0 0 0 .169-.02c-.036-.068-.063-.16-.108-.2-.383-.334-.747-.806-1.159-.953-.587-.208-1.057-.728-1.583-1.096-.26-.184-.533-.327-.8-.489a1.083 1.083 0 0 1-.32-.2c-.592-.704-1.186-1.407-1.76-2.145-.279-.358-.22-.642.143-.842.183-.1.242-.228.082-.46a1.043 1.043 0 0 0-.145-.153c-.213-.207-.416-.528-.237-.86.093-.173.434-.14.628-.035.3.161.568.462.85.704l.046-.098ZM8.671 8.892a.208.208 0 0 0-.08-.051c-1.148-.024-2.299-.106-3.446-.045-.8.043-1.596.276-2.393.436a.741.741 0 0 0-.224.166c.091.069.187.127.284.175.05.019.112-.045.17-.053a28.205 28.205 0 0 1 4.292-.281c.429.007.858-.024 1.287-.057.056-.005.11-.129.164-.197l-.054-.093Z" fill="#030303"/></svg>