<svg width="85" height="92" fill="none" xmlns="http://www.w3.org/2000/svg"><path d="M80.978 21.568c-.412-1.043-.608-2.174-1.104-3.176-.576-1.161-1.506-2.168-2.042-3.342a11.806 11.806 0 0 0-1.894-2.783A49.908 49.908 0 0 0 68.74 5.63c-1.499-1.238-3.271-2.186-5.218-2.791-2.335-.668-4.614-1.513-7.1-1.845A78.234 78.234 0 0 0 44.65.167c-1.678.029-3.322-.118-4.983.37-.608.18-1.24.27-1.86.409-1.655.368-3.295-.274-4.995.36-1.6.597-2.73 1.893-4.46 2.29-1.015.28-1.986.696-2.877 1.235a48.903 48.903 0 0 0-9.516 6.923 30.614 30.614 0 0 0-5.58 6.378c-1.755 2.887-2.975 5.943-4.416 8.928-.591 1.227-1.016 2.51-1.516 3.767.367 1.58-.597 2.931-1.156 4.37a10.234 10.234 0 0 0-.757 3.336 25.215 25.215 0 0 1-.936 5.034 30.585 30.585 0 0 0-.733 3.35c-.24 2.055-.17 4.135-.575 6.169-.34 1.717.65 3.343-.151 5.04-.084.178-.116.37-.094.557.168 1.11.404 2.209.526 3.326-.004.56-.04 1.123-.11 1.684-.026 2.703.597 5.176 2.689 7.142a7.452 7.452 0 0 1 1.527 1.696c.875 1.665 2.199 3.09 3.859 4.156 1.819 1.155 3.08 2.918 5.257 3.688.787.232 1.499.618 2.085 1.132 1.77 1.779 4.15 2.98 6.81 3.438.594.162 1.117.47 1.51.892.58.571 1.351.727 2.082 1.034 3.716 1.552 7.669 2.54 11.606 3.58 1.482.901 3.282.215 4.871.517a8.904 8.904 0 0 0 3.732-.325c1.031-.239 2.045-.54 3.067-.814 1.227-.329 2.45-.677 3.682-.98a7.446 7.446 0 0 0 3.318-1.695c.756-.686 1.669-1.235 2.412-1.93 1.64-1.53 3.284-3.065 4.788-4.698.793-.926 1.46-1.93 1.987-2.987.465-.857.674-1.812 1.094-2.69.14-.365.36-.704.648-.997a3.36 3.36 0 0 1 1.02-.708 5.892 5.892 0 0 0 2.479-1.805c1.265-1.565 3.078-2.717 4.207-4.386 1.316-.783 2.016-1.99 2.822-3.14 1.962-2.807 3.72-5.67 4.187-8.967a1.18 1.18 0 0 1 .2-.544c1.17-1.539.969-3.275 1.261-4.944.294-1.678.927-3.32.801-5.042-.08-1.107.48-2.223.215-3.367a8.95 8.95 0 0 1-.278-3.89c.253-1.273-.183-2.61-.01-3.901a7.992 7.992 0 0 0-.154-3.332c-.408-1.44-.752-2.897-1.127-4.345a5.421 5.421 0 0 0-1.217-2.5 4.524 4.524 0 0 1-.913-1.413Zm-1.1 12.1c.09.36.09.74-.002 1.112a5.723 5.723 0 0 0-.036 2.788c.597 1.772.71 3.67.33 5.543-.26 1.073.352 2.274.066 3.334-.799 2.961-.61 6.003-1.671 8.931-.46 1.27-.712 2.583-1.498 3.77a8.065 8.065 0 0 0-1.117 2.078c-.605 2.037-1.863 3.904-3.614 5.36-.768.667-1.336 1.518-2.06 2.232a.917.917 0 0 1-.567.242.83.83 0 0 1-.57-.17.518.518 0 0 1-.106-.455c.146-.757.302-1.536-.442-2.052a4.901 4.901 0 0 0-1.6-.748 1.474 1.474 0 0 0-1.152.273 18.558 18.558 0 0 0-3.47 5.485c-1.53 3.599-3.92 6.865-6.363 10.06a8.405 8.405 0 0 1-2.813 2.365c-1.687.833-3.02 2.188-4.934 2.68-1.947.504-3.733-.01-5.56-.228a31.934 31.934 0 0 1-7.763-1.729c-.362-.14-.874-.016-1.214-.176-3.066-1.455-6.419-2.387-9.536-3.729a98.594 98.594 0 0 1-9.119-4.516c-1.707-.954-3.138-2.287-4.681-3.463-.77-.587-1.486-1.23-2.27-1.801a3.551 3.551 0 0 1-1.364-1.773c-.466-1.42-.904-2.849-1.353-4.274l.16-.043c-.29-1.082-.6-2.16-.862-3.25a5.148 5.148 0 0 1-.245-1.66c.268-2.805.406-5.63.967-8.406.64-3.166.9-6.364 1.777-9.509 1.388-4.985 2.64-9.994 3.982-14.988a8.543 8.543 0 0 1 .88-2.131 77.46 77.46 0 0 1 2.887-4.533c4.798-6.945 2.59-4.47 9.605-10.034.64-.508 1.304-1.171 2.054-1.356 2.117-.52 3.55-2.193 5.653-2.712 2.854-.702 5.635-1.853 8.641-1.381.21 0 .42-.029.625-.084a40.51 40.51 0 0 1 9.923-.225c1.23.131 2.42.404 3.719.209 1.328-.2 2.286.772 3.498.942 2.086.204 4.026.943 5.592 2.13 2.07 1.725 4.61 3.068 6.1 5.283 1.258 1.87 2.658 3.648 3.922 5.51.384.642.705 1.317.96 2.015.133.544.34 1.068.618 1.56 2.81 3.36 2.832 7.634 4.023 11.524Z" fill="#030303"/></svg>