<svg width="93" height="83" fill="none" xmlns="http://www.w3.org/2000/svg"><path d="M11.063 14.764c-.806.78-1.776 1.393-2.512 2.235-.853.976-1.428 2.221-2.307 3.165a11.805 11.805 0 0 0-1.847 2.814 49.905 49.905 0 0 0-3.38 9.189c-.57 1.859-.768 3.859-.583 5.889.276 2.414.367 4.842 1.01 7.266a78.238 78.238 0 0 0 3.739 11.193c.668 1.54 1.162 3.115 2.249 4.463.397.493.724 1.043 1.088 1.563.973 1.387 1.007 3.148 2.243 4.477 1.163 1.25 2.793 1.797 3.822 3.245a11.415 11.415 0 0 0 2.241 2.185 48.905 48.905 0 0 0 10.037 6.145 30.613 30.613 0 0 0 8.026 2.716c3.34.519 6.63.477 9.94.666 1.358.077 2.706-.02 4.059-.04 1.32-.943 2.937-.57 4.48-.603 1.168-.005 2.306-.2 3.372-.576a25.208 25.208 0 0 1 5.01-1.061c1.141-.14 2.268-.341 3.375-.604 1.99-.564 3.885-1.425 5.92-1.828 1.716-.343 2.84-1.878 4.715-1.788.196.01.386-.034.55-.126.961-.58 1.887-1.218 2.872-1.758.52-.211 1.053-.393 1.598-.544 2.507-1.009 4.554-2.53 5.57-5.215a7.457 7.457 0 0 1 .983-2.06c1.204-1.445 2.016-3.213 2.365-5.154.37-2.123 1.517-3.963 1.397-6.268a5.514 5.514 0 0 1 .248-2.36c.967-2.316 1.167-4.975.573-7.607a3.209 3.209 0 0 1 .246-1.737c.306-.753.155-1.526.16-2.319.012-4.026-.587-8.057-1.132-12.092.266-1.715-1.056-3.115-1.385-4.7a8.905 8.905 0 0 0-1.728-3.323c-.615-.861-1.281-1.683-1.925-2.522-.773-1.008-1.563-2.004-2.314-3.027a7.446 7.446 0 0 0-2.835-2.418c-.924-.436-1.78-1.07-2.706-1.49-2.041-.93-4.088-1.862-6.172-2.628a14.646 14.646 0 0 0-3.52-.693c-.97-.102-1.932.07-2.904.018a2.95 2.95 0 0 1-1.168-.217 3.357 3.357 0 0 1-1.045-.672 5.893 5.893 0 0 0-2.615-1.6c-1.93-.57-3.688-1.805-5.663-2.21-1.226-.917-2.61-1.102-3.98-1.406-3.343-.74-6.662-1.27-9.886-.44a1.18 1.18 0 0 1-.58.023c-1.869-.492-3.396.358-5.05.727-1.663.37-3.422.413-4.965 1.188-.992.497-2.238.407-3.193 1.089a8.95 8.95 0 0 1-3.489 1.744c-1.272.254-2.34 1.167-3.6 1.502a7.993 7.993 0 0 0-3.02 1.417c-1.173.927-2.388 1.802-3.583 2.702a5.42 5.42 0 0 0-1.845 2.081 4.521 4.521 0 0 1-.956 1.384Zm11.6-3.611c.3-.222.65-.367 1.029-.424a5.723 5.723 0 0 0 2.59-1.033 10.66 10.66 0 0 1 4.996-2.424c1.09-.17 1.965-1.196 3.054-1.337 3.042-.395 5.78-1.732 8.892-1.871 1.348-.061 2.659-.33 4.056-.058a8.07 8.07 0 0 0 2.347.237c2.114-.22 4.32.228 6.334 1.289.91.455 1.914.654 2.851 1.05.19.086.347.24.44.431a.83.83 0 0 1 .062.592.517.517 0 0 1-.38.271c-.755.155-1.535.31-1.728 1.194a4.9 4.9 0 0 0-.079 1.764 1.47 1.47 0 0 0 .693.96 18.556 18.556 0 0 0 6.395 1.108c3.91.038 7.842.997 11.729 2.033a8.404 8.404 0 0 1 3.261 1.694c1.415 1.24 3.177 1.954 4.364 3.533 1.21 1.608 1.418 3.454 1.915 5.225a31.934 31.934 0 0 1 1.372 7.834c.009.388.32.814.301 1.19-.171 3.389.25 6.843.202 10.236a98.558 98.558 0 0 1-.685 10.153c-.228 1.943-.912 3.775-1.409 5.65-.248.936-.569 1.844-.796 2.787a3.552 3.552 0 0 1-1.116 1.938c-1.135.973-2.287 1.925-3.432 2.885l-.101-.132c-.89.682-1.766 1.38-2.672 2.04a5.147 5.147 0 0 1-1.442.86c-2.694.826-5.356 1.779-8.136 2.322-3.17.62-6.224 1.602-9.466 1.995-5.137.625-10.244 1.383-15.37 2.053a8.545 8.545 0 0 1-2.307.002 77.389 77.389 0 0 1-5.292-.933c-8.252-1.777-5.12-.684-12.945-5.038-.715-.397-1.581-.756-2.039-1.38-1.29-1.756-3.384-2.44-4.667-4.185-1.74-2.368-3.868-4.497-4.581-7.456a2.424 2.424 0 0 0-.317-.545 40.51 40.51 0 0 1-4.003-9.082c-.35-1.187-.552-2.39-1.23-3.516-.692-1.151-.16-2.408-.467-3.593-.61-2.005-.668-4.08-.17-5.982.801-2.572 1.071-5.432 2.547-7.656 1.247-1.878 2.355-3.851 3.59-5.732.449-.6.949-1.155 1.497-1.658.452-.33.856-.722 1.204-1.166 2.03-3.882 5.971-5.537 9.11-8.125Z" fill="#030303"/></svg>