<svg width="98" height="99" fill="none" xmlns="http://www.w3.org/2000/svg"><g clip-path="url(#a)"><path d="M63.061 36.05a33.428 33.428 0 0 0-8.142-2.48.124.124 0 0 0-.13.061 22.392 22.392 0 0 0-1.014 2.045 31.01 31.01 0 0 0-9.145 0 20.546 20.546 0 0 0-1.03-2.045.13.13 0 0 0-.13-.06 33.34 33.34 0 0 0-8.142 2.479.115.115 0 0 0-.054.045c-5.185 7.606-6.606 15.026-5.909 22.353.003.036.024.07.052.092a33.414 33.414 0 0 0 9.988 4.957.13.13 0 0 0 .14-.045 23.202 23.202 0 0 0 2.044-3.263.123.123 0 0 0-.07-.173 22.024 22.024 0 0 1-3.12-1.46.125.125 0 0 1-.012-.21c.21-.153.42-.314.62-.476a.126.126 0 0 1 .129-.017c6.546 2.934 13.633 2.934 20.102 0a.125.125 0 0 1 .13.015c.201.163.41.325.622.479a.125.125 0 0 1-.011.209 20.661 20.661 0 0 1-3.122 1.458.124.124 0 0 0-.068.175c.601 1.142 1.287 2.23 2.042 3.262a.128.128 0 0 0 .14.046 33.303 33.303 0 0 0 10.004-4.957.126.126 0 0 0 .053-.09c.834-8.472-1.398-15.83-5.915-22.354a.1.1 0 0 0-.052-.046ZM42.566 53.987c-1.97 0-3.594-1.777-3.594-3.959 0-2.181 1.592-3.958 3.594-3.958 2.018 0 3.627 1.792 3.595 3.958 0 2.182-1.592 3.959-3.595 3.959Zm13.292 0c-1.971 0-3.595-1.777-3.595-3.959 0-2.181 1.592-3.958 3.595-3.958 2.018 0 3.626 1.792 3.594 3.958 0 2.182-1.576 3.959-3.594 3.959Z" fill="#030303"/></g><g clip-path="url(#b)"><path d="M59.838 94.031c1.12-.076 2.256.082 3.361-.086 1.282-.195 2.524-.775 3.805-.929 1.106-.16 2.191-.482 3.227-.957a49.91 49.91 0 0 0 8.512-4.838c1.635-1.052 3.078-2.452 4.246-4.122 1.347-2.022 2.845-3.935 3.918-6.203a78.222 78.222 0 0 0 4.368-10.962c.483-1.607 1.122-3.13 1.162-4.86.015-.633.12-1.264.178-1.897.152-1.687 1.263-3.054 1.176-4.867-.082-1.705-.973-3.176-.826-4.945a11.417 11.417 0 0 0-.3-3.116 48.91 48.91 0 0 0-3.702-11.172 30.61 30.61 0 0 0-4.378-7.254c-2.216-2.551-4.756-4.643-7.162-6.923-.988-.937-2.081-1.731-3.126-2.59-1.617-.131-2.611-1.46-3.813-2.43a10.232 10.232 0 0 0-2.947-1.737 25.212 25.212 0 0 1-4.51-2.422 30.586 30.586 0 0 0-2.969-1.717c-1.885-.854-3.887-1.42-5.702-2.424-1.532-.846-3.382-.4-4.755-1.678a1.023 1.023 0 0 0-.502-.259c-1.108-.177-2.227-.287-3.328-.51a14.544 14.544 0 0 1-1.571-.616c-2.567-.848-5.112-1.007-7.621.388a7.455 7.455 0 0 1-2.08.939c-1.853.327-3.614 1.154-5.134 2.411-1.653 1.382-3.716 2.048-5.111 3.887a5.516 5.516 0 0 1-1.713 1.642c-2.233 1.145-4.102 3.047-5.347 5.44a3.208 3.208 0 0 1-1.31 1.169c-.72.378-1.102 1.066-1.617 1.668-2.609 3.068-4.753 6.533-6.94 9.967-1.31 1.138-1.204 3.061-1.975 4.484a8.904 8.904 0 0 0-.826 3.653c-.086 1.055-.107 2.113-.157 3.17-.06 1.268-.1 2.539-.186 3.805a7.446 7.446 0 0 0 .606 3.676c.423.93.668 1.966 1.104 2.886.96 2.027 1.92 4.06 3.019 5.99a14.647 14.647 0 0 0 2.241 2.8c.675.705 1.521 1.194 2.23 1.861.305.245.56.558.753.92.192.363.316.767.364 1.188a5.894 5.894 0 0 0 .965 2.91c1.106 1.681 1.652 3.759 2.9 5.342.344 1.492 1.282 2.527 2.132 3.643 2.076 2.724 4.269 5.27 7.268 6.717.176.076.332.198.457.357 1.11 1.582 2.826 1.918 4.327 2.704 1.509.79 2.88 1.893 4.56 2.297 1.078.26 1.971 1.133 3.14 1.228a8.95 8.95 0 0 1 3.792.92c1.135.627 2.541.619 3.719 1.175a7.993 7.993 0 0 0 3.22.868c1.496.049 2.989.164 4.482.248a5.42 5.42 0 0 0 2.752-.4 4.526 4.526 0 0 1 1.624-.439Zm-11.192-4.729a2.293 2.293 0 0 1-1.059-.34 5.723 5.723 0 0 0-2.645-.882 10.66 10.66 0 0 1-5.38-1.372c-.944-.574-2.274-.355-3.196-.95-2.579-1.662-5.534-2.408-8-4.31-1.07-.823-2.244-1.463-3.136-2.573a8.067 8.067 0 0 0-1.64-1.697c-1.756-1.195-3.152-2.961-4.006-5.072-.402-.935-1.04-1.735-1.5-2.642a.917.917 0 0 1-.058-.613.83.83 0 0 1 .335-.492.519.519 0 0 1 .465.038c.677.369 1.372.754 2.09.203a4.898 4.898 0 0 0 1.2-1.296 1.473 1.473 0 0 0 .09-1.18 18.558 18.558 0 0 0-4.17-4.975c-2.963-2.552-5.347-5.822-7.648-9.122a8.404 8.404 0 0 1-1.397-3.399c-.28-1.86-1.165-3.542-1.053-5.515.113-2.008 1.146-3.553 1.909-5.227a31.938 31.938 0 0 1 4.008-6.87c.244-.302.281-.828.537-1.102 2.319-2.479 4.227-5.389 6.453-7.95a98.59 98.59 0 0 1 7.076-7.313c1.428-1.337 3.133-2.295 4.723-3.407.793-.554 1.624-1.04 2.406-1.614a3.552 3.552 0 0 1 2.104-.76c1.494-.012 2.989.005 4.483.01l-.008.166c1.12.053 2.24.086 3.358.167.561 0 1.12.091 1.656.273 2.59 1.108 5.24 2.098 7.713 3.477 2.821 1.573 5.789 2.794 8.518 4.586 4.327 2.838 8.718 5.555 13.067 8.352a8.55 8.55 0 0 1 1.763 1.487 77.377 77.377 0 0 1 3.44 4.128c5.156 6.684 3.47 3.827 6.636 12.202.29.765.72 1.599.667 2.37-.148 2.175 1.01 4.048.864 6.21-.198 2.931.052 5.93-1.312 8.651-.063.2-.1.41-.11.62a40.513 40.513 0 0 1-2.804 9.522c-.5 1.132-1.121 2.183-1.33 3.48-.214 1.325-1.431 1.942-1.962 3.046-.829 1.925-2.123 3.548-3.73 4.678-2.273 1.448-4.325 3.459-6.888 4.204-2.164.63-4.283 1.423-6.441 2.061-.73.17-1.47.27-2.213.302-.559-.04-1.12-.001-1.673.113-4.056 1.655-8.135.376-12.202.327Z" fill="#030303"/></g><defs><clipPath id="a"><path fill="#fff" transform="translate(29.2 29.25)" d="M0 0h40v39.273H0z"/></clipPath><clipPath id="b"><path fill="#fff" transform="rotate(-87.292 49.463 46.979)" d="M0 0h94.022v93.375H0z"/></clipPath></defs></svg>