<svg width="41" height="40" fill="none" xmlns="http://www.w3.org/2000/svg"><g clip-path="url(#a)"><path d="M34.061 7.05a33.433 33.433 0 0 0-8.142-2.48.124.124 0 0 0-.13.061 22.38 22.38 0 0 0-1.014 2.045 31.01 31.01 0 0 0-9.145 0A20.537 20.537 0 0 0 14.6 4.63a.13.13 0 0 0-.13-.06A33.34 33.34 0 0 0 6.328 7.05a.116.116 0 0 0-.054.045C1.09 14.7-.332 22.12.365 29.448c.003.036.024.07.052.092a33.413 33.413 0 0 0 9.988 4.957.13.13 0 0 0 .14-.045 23.202 23.202 0 0 0 2.044-3.263.123.123 0 0 0-.07-.173 22.026 22.026 0 0 1-3.12-1.46.125.125 0 0 1-.012-.21c.21-.153.42-.314.62-.476a.126.126 0 0 1 .129-.017c6.546 2.934 13.633 2.934 20.102 0a.125.125 0 0 1 .13.015c.201.163.41.325.622.479a.125.125 0 0 1-.011.209 20.661 20.661 0 0 1-3.122 1.458.124.124 0 0 0-.067.175c.6 1.142 1.286 2.23 2.041 3.262a.128.128 0 0 0 .14.046 33.303 33.303 0 0 0 10.004-4.957.126.126 0 0 0 .053-.09c.834-8.471-1.398-15.83-5.915-22.354a.1.1 0 0 0-.052-.046ZM13.566 24.987c-1.97 0-3.594-1.777-3.594-3.959 0-2.181 1.592-3.958 3.594-3.958 2.018 0 3.627 1.792 3.595 3.958 0 2.182-1.592 3.959-3.595 3.959Zm13.292 0c-1.971 0-3.595-1.777-3.595-3.959 0-2.181 1.592-3.958 3.595-3.958 2.018 0 3.626 1.792 3.594 3.958 0 2.182-1.576 3.959-3.594 3.959Z" fill="#030303"/></g><defs><clipPath id="a"><path fill="#fff" transform="translate(.2 .25)" d="M0 0h40v39.273H0z"/></clipPath></defs></svg>