<svg width="41" height="41" fill="none" xmlns="http://www.w3.org/2000/svg"><g clip-path="url(#a)"><path d="M13.022 36.42c15.09 0 23.346-12.505 23.346-23.347 0-.351-.007-.71-.023-1.062a16.667 16.667 0 0 0 4.093-4.248 16.18 16.18 0 0 1-4.71 1.289 8.25 8.25 0 0 0 3.608-4.539 16.496 16.496 0 0 1-5.209 1.992 8.217 8.217 0 0 0-13.99 7.483A23.308 23.308 0 0 1 3.227 5.42a8.216 8.216 0 0 0 2.538 10.95 8.216 8.216 0 0 1-3.718-1.023v.101a8.203 8.203 0 0 0 6.585 8.047 8.158 8.158 0 0 1-3.703.141 8.223 8.223 0 0 0 7.663 5.703A16.459 16.459 0 0 1 .438 32.734a23.281 23.281 0 0 0 12.584 3.686Z" fill="#030303"/></g><defs><clipPath id="a"><path fill="#fff" transform="translate(.438 .17)" d="M0 0h40v40H0z"/></clipPath></defs></svg>