<svg width="132" height="132" fill="none" xmlns="http://www.w3.org/2000/svg"><g clip-path="url(#a)"><path d="M59.022 83.42c15.09 0 23.346-12.505 23.346-23.346 0-.352-.007-.711-.023-1.063a16.668 16.668 0 0 0 4.093-4.248 16.18 16.18 0 0 1-4.71 1.289 8.25 8.25 0 0 0 3.608-4.539 16.499 16.499 0 0 1-5.209 1.992 8.217 8.217 0 0 0-13.99 7.483 23.308 23.308 0 0 1-16.91-8.568 8.216 8.216 0 0 0 2.538 10.95 8.216 8.216 0 0 1-3.718-1.023v.102a8.203 8.203 0 0 0 6.585 8.046 8.158 8.158 0 0 1-3.703.141 8.222 8.222 0 0 0 7.663 5.703 16.459 16.459 0 0 1-12.154 3.395 23.281 23.281 0 0 0 12.584 3.686Z" fill="#030303"/></g><g clip-path="url(#b)"><path d="M29.063 38.764c-.806.78-1.776 1.393-2.512 2.235-.853.976-1.428 2.221-2.307 3.165a11.805 11.805 0 0 0-1.847 2.814 49.91 49.91 0 0 0-3.38 9.189c-.57 1.859-.768 3.859-.583 5.889.276 2.414.367 4.842 1.01 7.266a78.237 78.237 0 0 0 3.739 11.193c.669 1.54 1.162 3.115 2.249 4.463.397.493.724 1.043 1.088 1.563.973 1.387 1.007 3.148 2.243 4.477 1.163 1.25 2.793 1.797 3.823 3.245a11.415 11.415 0 0 0 2.24 2.185 48.913 48.913 0 0 0 10.037 6.145 30.59 30.59 0 0 0 8.026 2.716c3.34.518 6.63.477 9.94.666 1.358.077 2.706-.021 4.059-.039 1.32-.944 2.937-.57 4.48-.604a10.236 10.236 0 0 0 3.372-.576 25.18 25.18 0 0 1 5.01-1.061 30.609 30.609 0 0 0 3.375-.604c1.99-.564 3.885-1.425 5.92-1.829 1.716-.342 2.84-1.877 4.715-1.787.196.01.386-.034.55-.126.961-.58 1.887-1.218 2.872-1.758.52-.211 1.053-.393 1.598-.544 2.507-1.009 4.554-2.53 5.57-5.215a7.454 7.454 0 0 1 .983-2.06c1.204-1.445 2.016-3.213 2.365-5.154.371-2.123 1.517-3.963 1.397-6.268a5.512 5.512 0 0 1 .248-2.36c.967-2.316 1.167-4.975.573-7.607a3.21 3.21 0 0 1 .246-1.737c.306-.753.155-1.526.159-2.319.013-4.026-.585-8.057-1.131-12.092.266-1.715-1.056-3.115-1.385-4.7a8.908 8.908 0 0 0-1.728-3.323c-.615-.861-1.282-1.683-1.925-2.522-.773-1.008-1.563-2.004-2.315-3.027a7.437 7.437 0 0 0-2.834-2.417c-.924-.437-1.78-1.07-2.706-1.492-2.041-.929-4.088-1.861-6.172-2.627a14.649 14.649 0 0 0-3.52-.693c-.97-.102-1.932.07-2.904.018a2.95 2.95 0 0 1-1.168-.217 3.36 3.36 0 0 1-1.045-.672 5.893 5.893 0 0 0-2.615-1.6c-1.93-.57-3.688-1.805-5.663-2.21-1.226-.917-2.61-1.102-3.98-1.406-3.344-.74-6.662-1.27-9.886-.44a1.18 1.18 0 0 1-.58.023c-1.869-.492-3.396.358-5.05.727-1.663.37-3.422.413-4.965 1.188-.992.497-2.238.407-3.193 1.089a8.95 8.95 0 0 1-3.489 1.744c-1.272.254-2.34 1.167-3.6 1.502a7.993 7.993 0 0 0-3.02 1.417c-1.173.927-2.388 1.802-3.583 2.702a5.42 5.42 0 0 0-1.845 2.081 4.521 4.521 0 0 1-.956 1.384Zm11.6-3.611c.3-.222.65-.367 1.029-.424a5.723 5.723 0 0 0 2.59-1.033 10.66 10.66 0 0 1 4.996-2.424c1.09-.17 1.965-1.196 3.054-1.337 3.042-.394 5.78-1.732 8.892-1.871 1.348-.061 2.659-.33 4.056-.058.78.195 1.572.275 2.347.237 2.114-.22 4.32.228 6.335 1.289.91.455 1.913.654 2.85 1.05.19.086.347.24.44.431a.83.83 0 0 1 .062.592.518.518 0 0 1-.38.271c-.755.155-1.535.31-1.728 1.194a4.9 4.9 0 0 0-.079 1.764 1.47 1.47 0 0 0 .693.96 18.556 18.556 0 0 0 6.395 1.108c3.91.038 7.842.997 11.729 2.033a8.403 8.403 0 0 1 3.261 1.694c1.415 1.24 3.177 1.954 4.364 3.533 1.209 1.608 1.418 3.454 1.915 5.225a31.958 31.958 0 0 1 1.372 7.834c.009.388.319.814.301 1.19-.171 3.389.25 6.843.202 10.236a98.473 98.473 0 0 1-.685 10.153c-.228 1.943-.912 3.775-1.409 5.65-.248.936-.569 1.844-.796 2.787a3.552 3.552 0 0 1-1.117 1.938c-1.134.973-2.286 1.925-3.431 2.885l-.101-.132c-.89.682-1.766 1.38-2.672 2.04a5.147 5.147 0 0 1-1.442.86c-2.694.826-5.356 1.779-8.136 2.322-3.17.62-6.224 1.602-9.466 1.995-5.137.625-10.244 1.383-15.37 2.053a8.521 8.521 0 0 1-2.307.002 77.386 77.386 0 0 1-5.292-.933c-8.252-1.777-5.12-.684-12.945-5.038-.715-.397-1.581-.756-2.039-1.38-1.29-1.756-3.384-2.44-4.667-4.185-1.74-2.368-3.868-4.497-4.581-7.456a2.424 2.424 0 0 0-.317-.545 40.512 40.512 0 0 1-4.003-9.082c-.35-1.187-.552-2.39-1.23-3.516-.692-1.151-.16-2.408-.467-3.593-.61-2.005-.668-4.08-.17-5.982.801-2.572 1.071-5.432 2.547-7.656 1.247-1.878 2.355-3.851 3.59-5.732.449-.6.949-1.155 1.497-1.658.452-.33.856-.722 1.204-1.166 2.03-3.882 5.971-5.538 9.11-8.125Z" fill="#030303"/></g><defs><clipPath id="a"><path fill="#fff" transform="translate(46.438 47.17)" d="M0 0h40v40H0z"/></clipPath><clipPath id="b"><path fill="#fff" transform="rotate(52.514 37.093 75.63)" d="M0 0h94.022v93.375H0z"/></clipPath></defs></svg>